<svg version="1.0" xmlns="http://www.w3.org/2000/svg"
viewBox="0 0 2776.000000 558.000000"
 preserveAspectRatio="xMidYMid meet">
<g transform="translate(0.000000,558.000000) scale(0.100000,-0.100000)"
fill="#000000" stroke="none">
<path d="M12125 5500 c-11 -4 -33 -22 -50 -40 l-30 -31 -3 -940 c-1 -516 -6
-939 -11 -939 -5 0 -29 9 -53 20 -58 25 -207 65 -328 87 -77 15 -149 18 -375
18 -268 -1 -285 -2 -403 -28 -319 -72 -551 -192 -765 -397 -259 -248 -423
-576 -494 -993 -24 -139 -24 -453 1 -587 43 -237 116 -455 204 -609 168 -292
385 -502 657 -635 157 -77 302 -122 505 -157 111 -20 450 -17 575 5 145 24
317 71 409 111 44 19 80 33 81 32 15 -30 43 -62 68 -77 31 -19 54 -20 562 -20
585 0 572 -1 619 63 l21 28 0 2503 c0 2395 -1 2503 -18 2529 -10 16 -32 37
-50 47 -31 19 -54 20 -567 19 -294 0 -544 -4 -555 -9z m-480 -3015 c231 -61
404 -302 381 -531 -9 -87 -39 -168 -92 -246 -52 -77 -121 -134 -219 -180 -62
-29 -82 -33 -172 -36 -77 -3 -114 0 -155 13 -92 30 -165 75 -228 140 -198 207
-192 520 14 713 66 61 159 114 232 131 62 14 175 12 239 -4z"/>
<path d="M874 5333 c-12 -2 -31 -14 -42 -26 -23 -24 -27 -46 -162 -902 -11
-66 -37 -232 -59 -370 -22 -137 -45 -279 -51 -315 -5 -36 -28 -177 -50 -315
-22 -137 -49 -304 -60 -370 -25 -158 -65 -410 -89 -565 -11 -69 -39 -240 -61
-380 -22 -140 -50 -311 -61 -380 -11 -69 -33 -208 -49 -310 -16 -102 -43 -268
-59 -370 -45 -277 -81 -500 -87 -542 -8 -50 9 -98 47 -134 l30 -29 634 0 635
0 25 26 c27 27 38 71 70 289 12 83 162 1065 200 1315 8 50 30 198 50 330 20
132 39 248 43 257 4 11 137 -371 371 -1070 201 -598 371 -1097 378 -1108 27
-43 49 -45 456 -42 l387 3 24 25 c18 19 114 297 386 1113 199 599 364 1087
366 1085 4 -4 13 -64 39 -248 8 -58 30 -213 50 -345 19 -132 46 -316 60 -410
13 -93 52 -357 85 -585 33 -228 65 -449 71 -490 13 -93 33 -127 79 -141 23 -6
249 -9 643 -7 l608 3 41 43 41 44 -6 66 c-3 37 -33 254 -66 482 -34 228 -68
460 -76 515 -8 55 -31 210 -51 345 -19 135 -42 288 -49 340 -7 52 -23 158 -34
235 -29 196 -147 1005 -176 1210 -14 94 -41 278 -60 410 -55 376 -103 708
-144 990 -21 143 -44 271 -50 284 -28 51 -32 51 -711 51 -651 0 -681 -2 -705
-40 -7 -11 -294 -859 -603 -1782 -86 -257 -160 -464 -163 -460 -5 6 -58 171
-178 557 -410 1310 -525 1661 -552 1690 l-29 30 -658 1 c-361 1 -667 0 -678
-3z"/>
<path d="M6903 5270 c-224 -58 -396 -232 -453 -458 -55 -216 16 -454 179 -604
200 -183 476 -222 716 -100 89 46 217 172 262 257 100 191 97 434 -8 612 -50
85 -160 191 -246 236 -141 74 -304 94 -450 57z"/>
<path d="M8229 5271 c-243 -67 -409 -239 -463 -480 -21 -97 -20 -168 4 -270
29 -119 81 -212 165 -296 87 -86 162 -131 268 -162 405 -118 802 184 800 607
-1 336 -266 604 -608 616 -75 3 -117 -1 -166 -15z"/>
<path d="M26200 4677 c-116 -35 -204 -89 -295 -181 -87 -88 -141 -181 -170
-291 -23 -91 -20 -275 6 -361 35 -115 91 -204 180 -289 81 -76 146 -118 240
-152 67 -24 87 -27 219 -27 135 -1 150 1 223 28 198 73 344 224 416 431 35
104 41 255 12 358 -61 224 -218 396 -430 471 -74 26 -102 30 -206 33 -102 2
-131 -1 -195 -20z m291 -128 c190 -41 345 -189 400 -384 20 -70 17 -217 -5
-285 -39 -116 -136 -239 -235 -297 -168 -98 -392 -95 -551 7 -118 76 -219 225
-236 350 -2 19 -7 50 -10 67 -8 51 23 189 58 261 71 143 227 261 378 285 53 9
151 7 201 -4z"/>
<path d="M26090 4051 l0 -351 90 0 90 0 0 130 0 130 49 0 c65 0 91 -26 156
-159 l49 -101 98 0 98 0 -11 28 c-28 74 -126 246 -155 271 l-31 28 34 28 c53
42 73 82 73 146 0 62 -18 115 -47 141 -48 44 -90 52 -295 56 l-198 4 0 -351z
m328 193 c17 -12 22 -25 22 -63 0 -67 -23 -86 -103 -86 l-62 0 -3 83 -3 82 63
0 c41 0 71 -5 86 -16z"/>
<path d="M17856 3724 c-120 -16 -321 -65 -429 -105 -431 -159 -791 -509 -962
-937 -207 -515 -172 -1118 91 -1584 279 -494 742 -783 1367 -853 291 -33 581
-4 872 86 292 90 581 286 771 522 344 428 468 1031 328 1592 -84 337 -235 600
-477 831 -229 219 -507 358 -857 428 -191 38 -506 47 -704 20z m403 -1249
c316 -75 481 -428 337 -720 -50 -102 -123 -173 -232 -227 l-87 -43 -132 0
-132 0 -84 42 c-111 55 -194 139 -247 250 -34 73 -37 85 -40 189 -4 102 -2
116 23 180 54 134 129 221 246 284 107 57 229 73 348 45z"/>
<path d="M22320 3694 c-159 -14 -260 -28 -365 -51 -122 -26 -289 -79 -357
-114 -46 -23 -48 -23 -48 -1 0 25 -33 71 -66 93 -28 18 -58 19 -637 19 l-608
0 -42 -39 -42 -40 -3 -1563 c-2 -1473 -1 -1565 15 -1598 10 -19 33 -45 52 -58
l35 -22 609 2 608 3 40 42 39 42 0 969 c0 998 2 1047 40 1123 27 51 98 110
161 134 75 28 299 29 376 2 79 -28 127 -68 159 -134 l29 -58 5 -1022 5 -1023
38 -37 37 -38 620 0 620 0 37 38 38 37 5 1003 5 1002 26 56 c36 76 97 135 178
172 62 29 73 30 186 30 109 0 126 -2 180 -27 76 -34 140 -95 174 -166 l26 -55
5 -1000 c5 -943 6 -1002 23 -1028 10 -16 32 -37 50 -47 31 -19 55 -20 625 -20
657 0 643 -1 683 64 19 30 19 68 17 1191 l-3 1160 -32 118 c-39 143 -93 258
-171 363 -234 314 -627 475 -1167 477 -213 1 -328 -10 -490 -48 -195 -46 -315
-100 -456 -205 l-75 -56 -53 43 c-152 125 -369 208 -646 248 -100 15 -401 26
-485 19z"/>
<path d="M14920 3674 c-19 -3 -81 -14 -137 -25 -358 -71 -614 -207 -853 -456
-307 -318 -472 -749 -472 -1233 0 -190 12 -290 61 -483 76 -301 217 -551 431
-767 192 -193 435 -332 697 -399 182 -47 236 -54 459 -58 312 -7 505 17 733
93 118 39 308 134 343 171 l23 25 0 565 0 565 -32 28 c-41 37 -101 54 -138 40
-15 -6 -46 -26 -69 -46 -51 -44 -181 -108 -261 -130 -81 -21 -387 -31 -481
-15 -155 27 -288 125 -335 249 -29 78 -32 231 -4 317 42 130 140 229 282 286
54 22 71 24 263 24 252 -1 290 -9 488 -107 140 -69 145 -70 183 -59 22 7 54
25 72 41 l32 28 3 541 c3 596 4 584 -58 616 -102 53 -364 127 -580 165 -101
18 -172 23 -370 25 -135 2 -261 1 -280 -1z"/>
<path d="M6115 3631 c-11 -5 -33 -23 -50 -41 l-30 -31 0 -1037 0 -1037 23
-105 c65 -298 179 -510 375 -698 182 -173 408 -293 685 -362 218 -54 282 -62
547 -67 291 -6 413 6 645 63 248 61 410 136 596 275 243 182 388 413 470 749
l28 115 3 1042 c4 1154 8 1082 -60 1123 -31 19 -55 20 -637 20 -582 0 -606 -1
-637 -20 -18 -10 -40 -31 -50 -47 -17 -25 -18 -84 -23 -988 l-5 -960 -31 -55
c-25 -43 -42 -61 -84 -82 -47 -25 -62 -28 -154 -28 -153 1 -226 41 -266 147
-19 52 -20 78 -20 984 0 1007 2 967 -55 1019 l-27 25 -611 2 c-337 1 -621 -2
-632 -6z"/>
</g>
</svg>
