<svg version="1.0" xmlns="http://www.w3.org/2000/svg" viewBox="0 0 2756.000000 115.000000"
 preserveAspectRatio="xMidYMid meet">
<g transform="translate(0.000000,115.000000) scale(0.100000,-0.100000)"
fill="#000000" stroke="none">
<path d="M390 1134 c-71 -19 -128 -53 -174 -104 -59 -66 -79 -121 -80 -220 -1
-74 3 -93 27 -142 47 -96 117 -134 352 -188 164 -38 219 -63 223 -102 8 -65
-50 -100 -167 -100 -113 -1 -153 24 -181 111 l-15 46 -114 3 c-75 2 -118 -1
-127 -9 -20 -17 -17 -90 6 -153 55 -145 218 -235 426 -236 198 0 345 74 411
208 24 49 28 68 27 142 0 98 -14 138 -69 199 -51 56 -117 84 -309 130 -223 54
-251 71 -227 134 19 49 103 74 191 57 63 -12 105 -46 114 -92 11 -55 19 -58
137 -58 102 0 109 1 123 23 25 38 -6 154 -60 224 -36 47 -119 100 -193 123
-77 24 -238 26 -321 4z"/>
<path d="M4303 1135 c-248 -54 -407 -295 -390 -590 14 -233 144 -423 331 -481
135 -41 293 -25 394 42 47 31 53 33 58 17 14 -45 19 -48 104 -51 52 -2 87 1
96 9 20 17 21 551 0 568 -9 8 -81 11 -237 9 l-224 -3 -3 -104 c-2 -77 1 -107
10 -113 7 -4 55 -8 106 -8 75 0 92 -3 92 -15 0 -20 -66 -93 -99 -109 -112 -57
-265 -5 -317 107 -49 109 -41 288 19 388 60 99 190 138 294 88 44 -21 93 -79
93 -110 0 -25 20 -29 145 -29 136 0 141 4 118 90 -58 227 -314 355 -590 295z"/>
<path d="M17965 1138 c-115 -22 -236 -102 -306 -205 -90 -131 -119 -342 -72
-528 45 -181 191 -321 371 -356 122 -23 267 4 348 66 20 15 36 25 38 24 1 -2
6 -17 12 -34 l9 -30 89 -3 c65 -2 92 1 98 10 4 7 8 135 8 284 0 218 -3 274
-14 283 -9 8 -81 11 -237 9 l-224 -3 -3 -107 c-3 -125 -13 -116 131 -121 l88
-2 -30 -47 c-41 -64 -96 -92 -181 -92 -75 0 -125 20 -176 71 -50 50 -67 121
-62 257 4 94 8 119 30 161 48 92 115 135 210 135 57 0 122 -25 149 -56 10 -10
25 -37 36 -59 l18 -40 122 -3 c114 -2 123 -1 133 18 21 39 -27 159 -93 235
-98 113 -305 169 -492 133z"/>
<path d="M12635 1126 c-222 -71 -339 -255 -339 -536 0 -131 17 -211 66 -307
36 -73 127 -165 191 -193 293 -130 595 -1 673 287 24 90 20 93 -126 93 -128 0
-129 0 -150 -63 -50 -157 -265 -167 -339 -15 -29 62 -42 175 -30 272 17 138
80 223 173 233 100 12 162 -24 203 -114 l23 -54 128 3 127 3 0 51 c-1 104
-101 249 -209 303 -26 13 -71 29 -99 37 -64 17 -238 17 -292 0z"/>
<path d="M1117 1118 c-16 -12 -17 -53 -15 -528 l3 -515 374 -3 c293 -2 376 1
383 10 4 7 8 54 8 105 0 70 -4 95 -16 107 -13 14 -50 16 -250 16 l-234 0 0
400 c0 385 -1 400 -19 410 -28 15 -213 13 -234 -2z"/>
<path d="M1959 1109 c-20 -20 -21 -26 -17 -387 4 -341 6 -372 25 -430 54 -163
168 -238 378 -249 201 -11 352 55 418 182 44 86 47 121 47 517 l0 377 -34 7
c-46 8 -212 1 -223 -9 -4 -5 -10 -171 -13 -370 -5 -393 -6 -399 -63 -441 -38
-28 -149 -30 -190 -3 -62 41 -62 36 -67 439 -4 313 -7 370 -20 378 -8 5 -61
10 -117 10 -91 0 -105 -2 -124 -21z"/>
<path d="M2977 1118 c-16 -12 -17 -53 -15 -528 l3 -515 290 0 290 0 60 28
c155 73 252 244 263 467 14 307 -119 512 -358 550 -97 15 -512 13 -533 -2z
m488 -239 c49 -13 71 -32 99 -84 19 -35 21 -56 21 -180 0 -134 -1 -143 -28
-198 -45 -90 -81 -109 -218 -115 l-109 -5 0 297 0 296 98 0 c53 0 115 -5 137
-11z"/>
<path d="M6386 1115 c-15 -15 -16 -64 -14 -528 l3 -512 119 -3 c89 -2 121 1
128 10 4 7 8 126 9 263 0 138 3 243 6 235 4 -8 31 -125 62 -260 l56 -245 130
0 130 0 60 260 60 260 5 -260 c3 -143 7 -261 8 -263 1 -1 57 -1 125 0 l122 3
3 515 c2 475 1 516 -15 528 -24 18 -302 17 -327 -1 -14 -10 -36 -88 -86 -303
-36 -159 -70 -302 -74 -319 -7 -24 -22 30 -83 290 -41 176 -79 325 -84 330 -6
6 -80 11 -168 13 -136 3 -161 1 -175 -13z"/>
<path d="M7837 1118 c-10 -7 -70 -159 -136 -343 -65 -181 -146 -408 -181 -503
-50 -140 -60 -175 -50 -187 17 -21 252 -22 269 -1 6 8 24 51 40 97 l28 84 159
3 160 2 32 -100 33 -100 138 0 c124 0 139 2 143 18 7 26 -346 1013 -368 1029
-24 18 -243 18 -267 1z m174 -494 l37 -114 -80 0 c-60 0 -79 3 -76 13 3 6 20
60 38 119 18 60 36 105 39 102 3 -3 22 -57 42 -120z"/>
<path d="M8557 1118 c-16 -12 -17 -53 -15 -528 l3 -515 114 -3 c72 -2 118 1
125 8 7 7 13 111 16 297 l5 286 170 -294 171 -294 129 0 130 0 3 517 2 517
-21 12 c-24 12 -212 9 -226 -4 -4 -5 -10 -137 -13 -295 l-5 -286 -160 279
c-88 154 -168 288 -177 297 -15 15 -36 18 -126 18 -71 0 -114 -4 -125 -12z"/>
<path d="M9566 1117 c-16 -11 -17 -41 -14 -397 4 -427 7 -447 71 -532 77 -101
182 -143 362 -143 185 0 293 45 362 148 65 96 67 112 71 535 l3 382 -28 11
c-43 16 -231 8 -243 -11 -6 -9 -10 -162 -10 -365 0 -385 -1 -394 -63 -439 -38
-28 -150 -30 -190 -3 -61 39 -62 47 -65 442 -3 320 -5 361 -19 373 -23 17
-213 17 -237 -1z"/>
<path d="M11627 1118 c-9 -7 -68 -159 -132 -338 -64 -179 -146 -405 -181 -503
-51 -141 -62 -182 -53 -193 9 -11 40 -14 133 -14 66 0 126 4 132 8 6 4 24 47
41 97 l30 90 161 3 161 2 27 -87 c14 -49 31 -94 36 -101 8 -8 49 -12 143 -12
109 0 134 3 139 15 3 8 -39 140 -93 293 -54 152 -133 376 -176 497 -46 131
-85 227 -97 238 -17 14 -40 17 -137 17 -78 0 -123 -4 -134 -12z m173 -483 c18
-55 35 -106 38 -112 3 -10 -16 -13 -78 -13 -61 0 -81 3 -77 13 2 6 20 60 38
119 19 59 37 104 40 100 4 -4 21 -52 39 -107z"/>
<path d="M13288 1119 c-15 -8 -18 -26 -18 -114 0 -93 2 -105 19 -115 11 -5 78
-10 150 -10 l131 0 2 -402 3 -403 130 0 130 0 3 403 2 402 139 0 c172 0 171
-1 171 123 0 138 37 127 -442 127 -255 0 -409 -4 -420 -11z"/>
<path d="M14216 1117 c-16 -12 -17 -41 -14 -402 3 -379 4 -392 26 -446 64
-159 228 -241 451 -226 154 11 258 60 318 151 64 95 67 112 70 526 2 235 0
381 -6 390 -8 12 -35 15 -131 15 -96 0 -123 -3 -130 -15 -6 -9 -10 -162 -10
-365 0 -385 -1 -394 -63 -439 -38 -28 -150 -30 -190 -3 -61 39 -62 47 -65 442
-2 321 -5 361 -19 373 -23 17 -213 17 -237 -1z"/>
<path d="M15239 1124 c-10 -3 -20 -15 -23 -27 -3 -12 -6 -241 -6 -508 0 -375
3 -489 13 -502 11 -15 28 -17 132 -15 l120 3 5 190 5 190 105 0 c121 0 155 -7
170 -35 6 -11 15 -82 19 -158 5 -75 14 -149 20 -164 l11 -28 134 0 c123 0 136
2 146 19 11 22 5 47 -19 75 -12 14 -17 50 -22 160 -4 117 -9 148 -26 182 -12
22 -29 46 -37 53 -14 12 -12 18 23 57 105 114 89 324 -34 432 -79 69 -112 75
-435 78 -157 1 -292 0 -301 -2z m537 -267 c34 -40 34 -108 -1 -142 -23 -24
-29 -25 -160 -25 l-135 0 0 93 c0 52 3 97 7 101 4 4 66 6 136 4 127 -3 129 -3
153 -31z"/>
<path d="M16230 1123 c-8 -3 -18 -11 -22 -17 -4 -6 -8 -237 -8 -512 0 -416 2
-504 14 -513 9 -8 55 -11 137 -9 l124 3 3 518 2 517 -26 10 c-27 11 -198 12
-224 3z"/>
<path d="M16626 1114 c-14 -14 -16 -72 -14 -527 l3 -512 119 -3 c89 -2 121 1
128 10 4 7 8 141 8 297 0 169 4 281 9 275 9 -9 81 -131 260 -442 l83 -142 123
0 c113 0 125 2 135 19 6 13 10 191 10 510 0 583 13 531 -133 531 -142 0 -131
24 -137 -309 l-5 -280 -165 289 c-112 197 -171 291 -185 294 -11 3 -66 6 -122
6 -79 0 -105 -3 -117 -16z"/>
<path d="M25475 1114 c-14 -15 -16 -56 -13 -398 4 -423 7 -444 71 -528 68 -89
168 -135 318 -145 207 -14 361 53 429 187 45 89 50 144 50 526 0 339 -1 354
-19 364 -11 5 -65 10 -120 10 -153 0 -141 32 -141 -385 0 -384 -3 -404 -63
-440 -43 -26 -153 -27 -192 -1 -56 37 -59 58 -63 446 -3 314 -5 356 -20 368
-26 19 -216 16 -237 -4z"/>
<path d="M26497 1118 c-16 -12 -17 -53 -15 -528 l3 -515 130 0 130 0 3 170 c2
168 3 170 29 197 15 15 30 28 34 28 4 0 71 -90 150 -200 l143 -200 155 2 c152
3 156 4 159 25 2 16 -53 99 -194 290 -108 147 -202 274 -207 281 -8 10 37 61
186 210 108 109 197 205 197 214 0 30 -35 38 -172 38 l-133 0 -172 -177 -173
-178 0 168 0 167 -26 10 c-37 15 -207 13 -227 -2z"/>
<path d="M5065 1108 c-3 -7 -4 -242 -3 -523 l3 -510 405 0 405 0 3 109 c2 81
-1 112 -10 118 -7 4 -131 8 -275 8 l-263 0 0 95 0 95 235 0 c274 0 255 -9 255
124 0 64 -4 88 -16 100 -13 14 -50 16 -245 16 l-229 0 0 70 0 70 254 0 c205 0
256 3 265 14 8 9 11 50 9 117 l-3 104 -393 3 c-309 2 -394 0 -397 -10z"/>
<path d="M10562 1108 c-9 -9 -12 -136 -12 -509 0 -274 3 -504 6 -513 5 -13 27
-16 134 -16 124 0 128 1 134 22 3 13 6 105 6 206 l0 182 204 0 c173 0 207 2
220 16 12 12 16 37 16 104 0 67 -4 92 -16 104 -13 14 -47 16 -220 16 l-204 0
0 85 0 85 238 0 c172 0 241 3 250 12 13 13 17 173 6 202 -5 14 -48 16 -378 16
-276 0 -375 -3 -384 -12z"/>
<path d="M22130 1094 c-47 -17 -102 -54 -132 -89 -55 -63 -102 -231 -79 -281
10 -23 14 -24 120 -24 76 0 112 4 117 12 5 7 11 37 15 66 12 86 67 126 139
101 72 -26 81 -147 17 -218 -12 -13 -71 -61 -132 -106 -196 -146 -261 -232
-287 -383 -19 -110 -46 -103 371 -100 l356 3 3 108 c1 59 1 108 0 109 -2 1
-88 4 -193 7 l-190 6 115 82 c132 93 211 172 243 240 32 70 31 217 -2 291 -34
76 -114 146 -198 172 -80 25 -217 26 -283 4z"/>
<path d="M22922 1095 c-171 -53 -252 -245 -240 -568 8 -219 56 -348 156 -424
58 -44 110 -58 217 -58 200 0 298 85 352 301 25 106 23 373 -6 477 -54 204
-156 288 -349 286 -48 0 -106 -6 -130 -14z m187 -229 c30 -32 40 -77 47 -221
7 -133 -8 -290 -32 -337 -33 -63 -112 -62 -146 4 -30 57 -45 242 -31 382 16
155 38 195 109 196 20 0 39 -9 53 -24z"/>
<path d="M23793 1103 c-7 -2 -18 -23 -24 -46 -20 -75 -63 -105 -167 -114 -37
-3 -73 -10 -79 -16 -17 -13 -18 -158 -1 -175 8 -8 48 -12 115 -12 l103 0 2
-332 3 -333 122 -3 c114 -2 123 -1 133 18 7 13 10 173 8 510 -3 423 -5 492
-18 500 -15 10 -175 12 -197 3z"/>
<path d="M24460 1088 c-175 -58 -272 -276 -212 -475 27 -86 71 -139 154 -183
53 -28 76 -35 143 -38 59 -3 90 0 119 12 22 9 41 14 44 11 9 -9 -20 -92 -41
-119 -47 -57 -132 -42 -161 29 l-15 35 -108 0 c-143 0 -154 -12 -113 -122 64
-170 302 -247 489 -156 137 66 221 259 221 508 0 283 -94 458 -273 506 -75 20
-171 17 -247 -8z m191 -214 c38 -19 59 -68 59 -134 0 -57 -12 -86 -44 -112
-21 -18 -89 -24 -121 -12 -29 11 -45 60 -45 135 0 67 2 73 34 105 38 38 70 43
117 18z"/>
<path d="M20666 1044 c-3 -9 -6 -54 -6 -100 l0 -84 -39 0 c-22 0 -44 -6 -51
-15 -14 -17 -17 -162 -3 -175 4 -5 26 -10 48 -12 l40 -3 5 -247 c6 -280 6
-283 90 -325 38 -20 60 -23 151 -23 136 0 139 2 139 110 0 90 -8 100 -79 100
l-41 0 0 195 0 195 54 0 c63 0 66 4 66 96 0 91 -9 104 -70 104 l-50 0 0 84 c0
46 -3 91 -6 100 -9 24 -239 24 -248 0z"/>
<path d="M19332 880 c-210 -44 -324 -216 -309 -460 7 -103 17 -139 59 -209 37
-61 97 -107 186 -143 82 -33 241 -32 327 2 77 30 175 124 197 190 l15 45 17
-58 c23 -78 88 -146 171 -177 127 -47 329 -35 432 26 129 75 163 268 66 375
-50 55 -93 75 -251 114 -75 19 -141 40 -146 46 -19 18 23 39 79 39 55 0 95
-20 95 -49 0 -35 21 -41 137 -41 97 0 115 2 120 17 11 28 -15 126 -45 168 -75
108 -304 155 -464 95 -71 -26 -118 -67 -153 -131 -25 -45 -29 -65 -29 -124 0
-143 57 -191 301 -255 67 -18 130 -38 140 -46 17 -12 17 -14 1 -30 -12 -12
-34 -16 -82 -16 -78 0 -112 17 -124 65 l-8 32 -121 3 c-115 2 -122 1 -128 -18
-6 -19 -8 -19 -28 -5 -16 11 -48 15 -120 15 l-98 0 -38 -41 c-31 -34 -46 -42
-84 -46 -27 -3 -59 0 -77 7 -37 15 -80 64 -80 91 0 18 10 19 255 19 299 0 282
-8 272 119 -15 187 -95 305 -243 360 -64 25 -179 34 -242 21z m180 -259 c15
-17 28 -36 28 -41 0 -6 -48 -10 -120 -10 -123 0 -130 2 -110 40 18 34 61 51
119 47 46 -3 59 -9 83 -36z"/>
<path d="M21050 600 c-11 -7 -16 -33 -18 -104 -6 -145 -20 -136 223 -136 240
0 225 -9 225 129 0 68 -4 93 -16 105 -13 13 -46 16 -207 16 -106 0 -199 -5
-207 -10z"/>
</g>
</svg>
